<?xml version="1.0" encoding="utf-8"?>
<!-- Generator: Adobe Illustrator 19.2.1, SVG Export Plug-In . SVG Version: 6.00 Build 0)  -->
<svg version="1.1" id="Layer_1" xmlns="http://www.w3.org/2000/svg" xmlns:xlink="http://www.w3.org/1999/xlink" x="0px" y="0px"
	 viewBox="0 0 466 354" style="enable-background:new 0 0 466 354;" xml:space="preserve">
<style type="text/css">
	.st0{fill:#428BCA;}
</style>
<circle class="st0" cx="318.9" cy="210.4" r="91.3"/>
<path class="st0" d="M398.2,75.6L378.8,38c0,0-14-31-31.3-31h-57.4c-17.3,0-31.3,31.4-31.3,31.4L239.6,76H205V56h-78v20H50.3
	C33,76,24.7,81.9,19,107c-5.7,25-12.5,52-10.4,104.8S11.7,288,19,314.6s14,31.5,31.3,31.5H116v-65.2c0-5.2,4.1-8.8,9.3-8.8h0.1
	c5.2,0,9.6,3.7,9.6,8.8V346h291.9c17.3,0,31.1-14.5,31.1-31.8V137.9C458,111.4,437.6,79.1,398.2,75.6z M183.8,137.9
	c-10.4,0-18.8-8.4-18.8-18.8s8.4-18.8,18.8-18.8s18.8,8.4,18.8,18.8S194.2,137.9,183.8,137.9z M318.4,324.7
	c-62.8,0-113.7-50.9-113.7-113.7S255.6,97.2,318.4,97.2s113.7,50.9,113.7,113.7S381.2,324.7,318.4,324.7z"/>
</svg>
